<?xml version="1.0" encoding="UTF-8" standalone="no"?>
<svg
   xmlns:dc="http://purl.org/dc/elements/1.1/"
   xmlns:cc="http://creativecommons.org/ns#"
   xmlns:rdf="http://www.w3.org/1999/02/22-rdf-syntax-ns#"
   xmlns:svg="http://www.w3.org/2000/svg"
   xmlns="http://www.w3.org/2000/svg"
   id="svg8"
   version="1.1"
   viewBox="0 0 108.98094 160.13965"
   height="605.2522"
   width="411.89648">
  <defs
     id="defs2" />
  <metadata
     id="metadata5">
    <rdf:RDF>
      <cc:Work
         rdf:about="">
        <dc:format>image/svg+xml</dc:format>
        <dc:type
           rdf:resource="http://purl.org/dc/dcmitype/StillImage" />
        <dc:title></dc:title>
      </cc:Work>
    </rdf:RDF>
  </metadata>
  <g
     transform="translate(-103.68015,85.982417)"
     id="g1054"
     style="display:none">
    <path
       style="opacity:1;fill:#200e09;fill-opacity:1;fill-rule:evenodd;stroke:#4b2014;stroke-width:0.82437271;stroke-linecap:round;stroke-linejoin:round;stroke-miterlimit:4;stroke-dasharray:none;stroke-dashoffset:0;stroke-opacity:0.95686275;paint-order:stroke fill markers"
       d="m 225.30279,-44.759436 c -9.98408,4.03269 -17.70416,6.22471 -26.51378,4.78502 -7.38268,-0.14312 -23.94802,-4.8839 -21.09083,-4.64203 -0.46192,0.17768 -2.03509,0.14034 -2.93343,1.72939 -1.50523,2.66257 -1.13044,6.32845 -1.78449,6.70919 -3.76863,-0.51348 -2.93819,-4.36336 -2.0895,-7.72436 1.28939,-4.66387 7.49108,-7.96245 12.90117,-6.86573 5.71333,1.41549 2.95544,1.3069 16.89625,7.42643 2.91849,1.28111 10.79009,-5.88472 14.9325,-7.12012 9.88135,-5.56848 23.3015,3.46797 12.39067,15.38767 -0.5279,0.80618 0.55027,-2.46661 0.20388,-5.56067 -0.27926,-2.49432 -1.96386,-4.0935 -2.91244,-4.12479 z"
       id="path1052" />
    <path
       id="path1056"
       d="m 205.58126,-11.277376 c 0,1.14813 -2.43401,2.4568391 -5.66965,2.4568391 -3.23563,0 -5.48065,-1.1197294 -5.48065,-2.2678591 0,-1.14813 2.24502,-0.37797 5.48065,-0.37797 3.23563,0 5.66965,-0.95914 5.66965,0.18899 z"
       style="opacity:1;fill:#200e09;fill-opacity:1;fill-rule:evenodd;stroke:#4b2014;stroke-width:1;stroke-linecap:round;stroke-linejoin:round;stroke-miterlimit:4;stroke-dasharray:none;stroke-dashoffset:0;stroke-opacity:0.95686275;paint-order:stroke fill markers" />
    <path
       id="path1058"
       d="m 235.94566,-18.161626 c -9.44438,11.2664882 -21.82549,23.5151884 -36.22304,23.5151884 -12.01406,0 -25.82049,-8.77575 -34.55869,-17.1884884 -11.15163,-10.73627 -14.88313,-29.97486 -15.33416,-37.33458 -0.42385,-6.91611 3.89314,20.08652 14.63359,22.38725 2.91791,0.62505 4.75312,-9.78223 6.5245,-6.52286 2.56425,4.71826 0.4106,12.59954 4.03974,16.90199 7.20458,8.5412385 20.12448,11.3043684 30.55365,10.0394384 17.2007,-2.0862293 16.89489,-12.5617884 21.21871,-22.3821084 7.83845,-17.80279 -1.19605,23.4743384 16.38312,-16.20079 0.91168,-2.3961 2.07713,-4.96652 3.61377,-7.65006 9.39037,-13.75709 2.15521,17.50167 -10.85119,34.43502 z"
       style="opacity:1;fill:#200e09;fill-opacity:1;fill-rule:evenodd;stroke:#4b2014;stroke-width:1;stroke-linecap:round;stroke-linejoin:round;stroke-miterlimit:4;stroke-dasharray:none;stroke-dashoffset:0;stroke-opacity:0.95686275;paint-order:stroke fill markers" />
  </g>
  <g
     id="g911"
     transform="matrix(-0.47509654,0,0,0.47509654,110.23797,20.292993)">
    <g
       id="layer9"
       style="display:inline"
       transform="translate(-82.175547,-91.450626)">
      <path
         style="opacity:1;fill:#273636;fill-opacity:1;fill-rule:evenodd;stroke:#121218;stroke-width:2.63783979;stroke-linecap:round;stroke-linejoin:round;stroke-miterlimit:4;stroke-dasharray:none;stroke-dashoffset:0;stroke-opacity:1;paint-order:stroke fill markers"
         d="m 163.64197,216.23855 76.77261,0.75595 c -1.07935,-0.0106 72.47483,14.50068 72.47483,33.92126 v 51.4873 c 0,19.42058 -18.4111,45.06185 -35.05519,35.05519 -15.60774,-9.38359 -24.92427,29.77155 -38.8886,23.74717 -4.83348,-2.08522 -3.99375,-15.06235 -9.41093,-23.28926 -4.0395,-6.13469 -13.03955,-7.90457 -15.49339,1.8802 -4.14943,11.32246 -3.31039,30.97136 -6.82979,37.90068 -5.11057,9.61944 -15.7964,8.15996 -18.97644,0.96176 -2.65771,-6.01586 -1.71929,-16.68477 -4.07611,-22.11683 -1.84187,-4.24518 -11.97345,-7.51123 -16.9001,-2.24311 -4.04751,4.32805 -9.08514,15.05812 -13.08185,14.06561 -4.27857,-1.06249 -6.63587,-4.42854 -8.06057,-8.80201 -2.12045,-6.50924 -1.64053,-15.25009 -2.88896,-21.94931 -5.32664,-18.87225 -21.63281,-10.41266 -23.55887,-5.04937 -2.46459,6.81739 -8.25751,17.2453 -15.17558,17.34918 -20.6017,-2.82962 -18.312966,-37.44436 -18.239589,-47.5099 v -51.4873 c 0,-19.17568 80.470049,-34.64687 77.388529,-34.67721 z"
         id="rect883" />
    </g>
    <g
       id="layer10"
       style="display:inline"
       transform="translate(-82.175547,-91.450626)">
      <path
         style="opacity:1;fill:#186d88;fill-opacity:0.11764706;fill-rule:evenodd;stroke:none;stroke-width:1;stroke-linecap:round;stroke-linejoin:round;stroke-miterlimit:4;stroke-dasharray:none;stroke-dashoffset:0;stroke-opacity:1;paint-order:stroke fill markers"
         d="m 134.9375,254.52828 c 0,24.00631 15.28445,60.2872 -6.4256,60.2872 -21.71005,0 -37.56162,-4.80812 -41.199399,-28.5372 -0.805128,-5.25181 -0.77538,-14.2997 -0.840103,-23.13528 -0.04916,-6.71098 -0.738781,-11.33094 0.866241,-15.22666 4.081348,-11.83948 36.414001,-20.95193 49.521571,-24.62327 122.4679,-33.03084 0.16706,8.77412 -1.92271,31.23521 z"
         id="path880" />
      <path
         transform="matrix(0.99665499,0.08172414,-0.06393919,0.9979538,0,0)"
         style="opacity:1;fill:#468254;fill-opacity:0.07843138;fill-rule:evenodd;stroke:none;stroke-width:1.23139834;stroke-linecap:round;stroke-linejoin:round;stroke-miterlimit:4;stroke-dasharray:none;stroke-dashoffset:0;stroke-opacity:1;paint-order:stroke fill markers"
         d="m 239.47021,309.44209 c -10.51982,13.62964 -6.82218,32.60421 -8.46965,42.91725 -2.05761,12.88048 -9.21818,12.24277 -12.40655,4.90305 -2.41226,-5.5531 6.40552,-23.46525 -5.88757,-50.08697 -15.37709,-33.30037 21.61475,-41.1406 32.16468,-37.38221 26.07548,9.28932 9.14467,20.80341 -5.40091,39.64888 z"
         id="path883" />
      <path
         style="opacity:1;fill:#549c65;fill-opacity:0.11764706;fill-rule:evenodd;stroke:none;stroke-width:1;stroke-linecap:round;stroke-linejoin:round;stroke-miterlimit:4;stroke-dasharray:none;stroke-dashoffset:0;stroke-opacity:1;paint-order:stroke fill markers"
         d="m 308.65925,255.84019 c -6.35659,17.3724 -23.05809,2.11815 -45.51653,-9.56068 -23.24328,-12.08697 -48.64685,-2.28059 -46.79307,-12.33997 1.88943,-10.25276 15.56589,-19.08309 50.43023,-7.07028 24.76912,8.53441 45.3942,19.36499 41.87937,28.97093 z"
         id="path889" />
      <path
         style="opacity:1;fill:#468254;fill-opacity:0.07843138;fill-rule:evenodd;stroke:none;stroke-width:0.98670048;stroke-linecap:round;stroke-linejoin:round;stroke-miterlimit:4;stroke-dasharray:none;stroke-dashoffset:0;stroke-opacity:1;paint-order:stroke fill markers"
         d="m 209.06282,271.91215 c -2.02542,2.87391 -5.1945,8.39581 3.27062,10.02788 8.3474,1.1587 28.45355,0.63458 32.62219,7.89533 6.96465,13.58827 16.6921,8.45495 18.9874,4.15418 3.6535,-6.84566 -10.18092,-17.03684 -24.99237,-22.90533 -14.81144,-5.86847 -24.14647,-7.31862 -29.88784,0.82794 z"
         id="path893" />
      <path
         transform="translate(1.0415093,200.05542)"
         style="display:inline;fill:#222e2e;fill-opacity:1;stroke:#121218;stroke-width:1;stroke-linecap:round;stroke-linejoin:miter;stroke-miterlimit:4;stroke-dasharray:none;stroke-opacity:1"
         d="m 154.07138,18.192017 c -2.07907,2.216361 -3.54866,4.998834 -4.20707,7.96553 -0.65841,2.966696 -0.50387,6.109619 0.44242,8.997409 1.05822,3.229387 3.07619,6.092569 5.53253,8.441006 2.45634,2.348438 5.3443,4.205872 8.34906,5.793376 11.11765,5.873775 23.83402,8.119308 36.39729,8.636606 11.84297,0.487639 24.16939,-0.616813 34.51046,-6.409559 6.55361,-3.671126 12.22567,-9.40494 14.45743,-16.577539 1.61664,-5.195691 1.32142,-10.96327 -0.81729,-15.966736"
         id="path892" />
      <path
         style="opacity:1;fill:#222e2e;fill-opacity:1;fill-rule:evenodd;stroke:none;stroke-width:1;stroke-linecap:round;stroke-linejoin:round;stroke-miterlimit:4;stroke-dasharray:none;stroke-dashoffset:0;stroke-opacity:1;paint-order:stroke fill markers"
         d="m 249.25433,219.42037 c 0,2.9225 -4.83037,7.13766 -8.4835,7.13766 -3.65314,0 -6.61459,-2.36916 -6.61459,-5.29167 0,-2.92251 0.33945,-7.4725 3.40179,-5.48066 3.00222,1.95274 11.36166,1.71608 11.6963,3.63467 z"
         id="path917" />
      <path
         style="opacity:1;fill:#1b7085;fill-opacity:0.11764706;fill-rule:evenodd;stroke:none;stroke-width:1;stroke-linecap:round;stroke-linejoin:round;stroke-miterlimit:4;stroke-dasharray:none;stroke-dashoffset:0;stroke-opacity:1;paint-order:stroke fill markers"
         d="m 113.20385,336.36011 c 0,6.36688 -4.56909,11.52827 -10.20535,11.52827 -5.636263,0 -15.243885,-12.73345 -13.145326,-18.74455 3.200418,-9.16726 9.189328,5.27604 12.343516,7.44786 4.64224,3.19641 11.00716,-6.59847 11.00716,-0.23158 z"
         id="path920" />
      <path
         style="opacity:1;fill:#1b6d85;fill-opacity:0.11764706;fill-rule:evenodd;stroke:none;stroke-width:1;stroke-linecap:round;stroke-linejoin:round;stroke-miterlimit:4;stroke-dasharray:none;stroke-dashoffset:0;stroke-opacity:1;paint-order:stroke fill markers"
         d="m 161.8331,353.58259 c 2.99378,3.3527 -3.90433,13.10382 -7.05185,12.82662 -3.25159,1.33444 -9.40257,-5.10417 -7.40018,-8.19132 0.90476,-1.3949 3.75847,-0.56026 4.7429,1.54398 5.62426,6.96345 7.24456,-5.10502 9.70913,-6.17928 z"
         id="path922" />
      <path
         transform="rotate(-39.180348)"
         style="opacity:1;fill:#549c65;fill-opacity:0.11764706;fill-rule:evenodd;stroke:none;stroke-width:1;stroke-linecap:round;stroke-linejoin:round;stroke-miterlimit:4;stroke-dasharray:none;stroke-dashoffset:0;stroke-opacity:1;paint-order:stroke fill markers"
         d="m 38.086601,433.81091 c 6e-6,6.16267 -7.508702,11.15851 -16.771164,11.15851 -9.262462,0 -16.7711694,-4.99584 -16.7711636,-11.15851 2.5e-6,-6.16267 7.2154746,2.73899 16.4779306,2.73899 9.262456,0 17.064395,-8.90166 17.064397,-2.73899 z"
         id="path924" />
      <path
         style="opacity:1;fill:#549c65;fill-opacity:0.11764706;fill-rule:evenodd;stroke:none;stroke-width:0.91743332;stroke-linecap:round;stroke-linejoin:round;stroke-miterlimit:4;stroke-dasharray:none;stroke-dashoffset:0;stroke-opacity:1;paint-order:stroke fill markers"
         d="m 250.73897,348.46496 c 1.5362,4.02299 -5.61693,8.35217 -8.66081,8.35217 -3.04388,0 -8.53759,-7.43242 -6.1863,-10.7576 1.7215,-2.43453 4.2672,3.94223 7.31108,3.94223 3.04387,0 6.48303,-4.29443 7.53603,-1.5368 z"
         id="path926" />
    </g>
    <g
       id="layer4"
       transform="translate(-82.175547,108.54937)"
       style="display:inline">
      <path
         style="opacity:1;fill:#ff9853;fill-opacity:1;fill-rule:evenodd;stroke:#461e13;stroke-width:4;stroke-linecap:round;stroke-linejoin:round;stroke-miterlimit:4;stroke-dasharray:none;stroke-dashoffset:0;stroke-opacity:1;paint-order:stroke fill markers"
         d="m 232.45536,13.139866 c 0.93147,1.877358 9.23076,4.438203 9.79287,6.171228 14.35953,44.27218 -98.11281,40.971082 -82.43139,1.361746 0.9425,-2.380647 6.49067,-4.892454 8.38257,-7.532974 5.68038,-10.5746188 3.57921,-33.624257 8.76537,-40.468894 15.80529,-20.859645 36.64202,-10.248947 45.97101,1.799052 5.31084,6.85871 2.86296,27.1683932 9.51957,38.669842 z"
         id="rect872" />
    </g>
    <g
       id="layer5"
       style="display:inline"
       transform="translate(-82.175547,-91.450626)">
      <path
         style="opacity:1;fill:#26a5ca;fill-opacity:0.23529412;fill-rule:evenodd;stroke:#461e13;stroke-width:0;stroke-linecap:round;stroke-linejoin:round;stroke-miterlimit:4;stroke-dasharray:none;stroke-dashoffset:0;stroke-opacity:1;paint-order:stroke fill markers"
         d="m 190.87796,218.43155 c 0,12.73378 3.49255,29.48214 -2.45684,29.48215 -7.21882,3.9571 -22.16649,-2.91981 -28.20735,-12.0717 -3.61265,-5.47316 -1.62921,-13.49935 0.45754,-16.70185 7.02757,-4.72794 8.58168,-6.95753 9.8816,-13.88054 1.14956,-6.10352 2.62762,-15.37288 2.37118,-17.44413 -0.73101,-5.90431 17.95387,17.88229 17.95387,30.61607 z"
         id="path876" />
      <path
         style="opacity:1;fill:#78b485;fill-opacity:0.35294119;fill-rule:evenodd;stroke:#461e13;stroke-width:0;stroke-linecap:round;stroke-linejoin:round;stroke-miterlimit:4;stroke-dasharray:none;stroke-dashoffset:0;stroke-opacity:1;paint-order:stroke fill markers"
         d="m 241.49109,219.23943 c 2.8844,5.77488 1.87404,22.86274 -8.73155,17.14338 -1.51585,-12.24585 -9.25184,-11.59408 -13.11972,-18.75915 -1.76223,-3.39805 0.42729,-40.22767 5.40259,-28.68532 1.30229,3.02123 2.72177,9.55937 5.21887,20.23537 2.2583,9.65506 9.17772,5.95722 11.22981,10.06572 z"
         id="path879" />
    </g>
    <g
       id="layer3"
       style="display:inline"
       transform="translate(-82.175547,108.54937)">
      <path
         style="opacity:1;fill:#ff9853;fill-opacity:1;fill-rule:evenodd;stroke:#461e13;stroke-width:4.2016263;stroke-linecap:round;stroke-linejoin:round;stroke-miterlimit:4;stroke-dasharray:none;stroke-dashoffset:0;stroke-opacity:1;paint-order:stroke fill markers"
         d="m 150.14138,-61.765841 c 0.0413,10.85493 -2.89492,12.4732 -9.03912,12.4732 -5.74225,-3.57028 -6.56756,-17.45043 -6.60551,-26.08034 0,-7.038103 8.0196,-3.99142 12.40023,-3.10514 2.37571,0.48066 -0.0374,-5.102775 0.81079,-2.942482 5.35948,13.650442 2.39487,9.473512 2.43361,19.654762 z"
         id="path938" />
      <path
         style="opacity:1;fill:#ff9853;fill-opacity:1;fill-rule:evenodd;stroke:#461e13;stroke-width:4.2016263;stroke-linecap:round;stroke-linejoin:round;stroke-miterlimit:4;stroke-dasharray:none;stroke-dashoffset:0;stroke-opacity:1;paint-order:stroke fill markers"
         d="m 247.94823,-56.706451 c -0.0413,10.85493 2.89491,12.4732 9.03911,12.4732 5.74225,-3.57028 6.56756,-17.45043 6.60552,-26.08034 0,-7.0381 -8.01961,-3.99142 -12.40023,-3.10514 -2.37572,0.48066 0.0374,-5.10277 -0.81079,-2.94248 -5.35949,13.65044 -2.39488,9.47351 -2.43361,19.65476 z"
         id="path938-4" />
    </g>
    <g
       id="layer1"
       style="display:inline"
       transform="translate(-82.175547,108.54937)">
      <g
         id="du"
         style="stroke:#461e13;stroke-opacity:1"
         transform="translate(99.424264,-179.60512)">
        <path
           style="opacity:1;fill:#ff9853;fill-opacity:1;fill-rule:evenodd;stroke:#461e13;stroke-width:5.18100023;stroke-linecap:round;stroke-linejoin:round;stroke-miterlimit:4;stroke-dasharray:none;stroke-dashoffset:0;stroke-opacity:1;paint-order:stroke fill markers"
           d="m 148.52397,122.89867 c 0,7.198 -2.18767,16.95014 -6.03707,24.64689 -7.79268,16.25727 -23.99874,26.46728 -40.54484,26.89969 -15.270461,0.39908 -30.949412,-8.04503 -37.826288,-15.85317 -8.614482,-10.65567 -13.219731,-26.95354 -13.44629,-39.76457 0,-16.29929 2.386807,-43.142637 12.20376,-52.451474 8.329614,-7.898481 22.566155,-8.236323 35.782998,-8.236323 14.41449,0 33.19116,2.230885 41.9663,12.50293 8.75365,10.246889 7.90143,37.209937 7.90143,52.256027 z"
           id="face_background" />
      </g>
    </g>
    <g
       id="layer6"
       style="display:inline"
       transform="translate(-82.175547,108.54937)">
      <path
         style="opacity:1;fill:#28a7c8;fill-opacity:0.19607843;fill-rule:evenodd;stroke:#461e13;stroke-width:0;stroke-linecap:round;stroke-linejoin:round;stroke-miterlimit:4;stroke-dasharray:none;stroke-dashoffset:0;stroke-opacity:1;paint-order:stroke fill markers"
         d="m 173.92292,-54.993982 c 11.24373,26.57088 6.74211,2.586074 13.76379,21.723506 5.44377,14.836882 -25.57763,44.55237 -39.64156,-28.561812 -5.503,-28.608419 23.05989,-70.666902 27.23915,-58.840202 2.26681,6.41476 -11.79209,41.028936 -1.36138,65.678508 z"
         id="path1071" />
      <path
         style="opacity:1;fill:#ff7441;fill-opacity:1;fill-rule:evenodd;stroke:#461e13;stroke-width:0;stroke-linecap:round;stroke-linejoin:round;stroke-miterlimit:4;stroke-dasharray:none;stroke-dashoffset:0;stroke-opacity:1;paint-order:stroke fill markers"
         d="m 149.40366,-63.947491 c 0,4.79729 -2.45304,8.68626 -5.47902,8.68626 -3.02599,0 -6.81538,-8.16528 -6.81538,-12.96257 0,-4.79729 3.78939,-4.40995 6.81538,-4.40995 3.02598,0 5.47902,3.88897 5.47902,8.68626 z"
         id="path1107" />
      <path
         style="opacity:1;fill:#ff7441;fill-opacity:1;fill-rule:evenodd;stroke:#461e13;stroke-width:0;stroke-linecap:round;stroke-linejoin:round;stroke-miterlimit:4;stroke-dasharray:none;stroke-dashoffset:0;stroke-opacity:1;paint-order:stroke fill markers"
         d="m 259.9196,-63.813861 c 0,4.87109 -2.51288,13.89801 -5.61266,13.89801 -3.09979,0 -6.68174,-5.28515 -6.68174,-10.15624 0,-4.8711 2.51287,-8.8199 5.61266,-8.8199 3.09979,0 6.68174,0.20703 6.68174,5.07813 z"
         id="path1109" />
      <path
         style="opacity:1;fill:#134e5e;fill-opacity:0.19607843;fill-rule:evenodd;stroke:#461e13;stroke-width:0;stroke-linecap:round;stroke-linejoin:round;stroke-miterlimit:4;stroke-dasharray:none;stroke-dashoffset:0;stroke-opacity:1;paint-order:stroke fill markers"
         d="m 199.68245,-55.019651 c 0,2.27576 -1.48637,4.12062 -3.31989,4.12062 -1.83353,0 -2.53874,-0.53376 -2.53874,-2.80951 0,-2.27576 2.07223,-7.67933 3.90575,-7.67933 1.83352,0 1.95288,4.09247 1.95288,6.36822 z"
         id="path1125" />
    </g>
    <path
       id="path1114"
       d="m 152.01102,48.224427 c 0,0.98843 -3.37193,3.17196 -4.90925,1.86071 -2.36394,-2.01631 -3.79702,-0.87348 -6.37192,0.57735 -3.43992,1.93822 -3.68593,-0.71661 -3.68593,-2.87161 0,-2.155 3.92066,-5.63619 7.93033,-5.63619 4.00968,0 7.03677,3.91474 7.03677,6.06974 z"
       style="opacity:1;fill:#78b485;fill-opacity:0.35294119;fill-rule:evenodd;stroke:#461e13;stroke-width:0;stroke-linecap:round;stroke-linejoin:round;stroke-miterlimit:4;stroke-dasharray:none;stroke-dashoffset:0;stroke-opacity:1;paint-order:stroke fill markers" />
    <path
       id="path1117"
       d="m 171.19596,15.73676 c -30.49614,-84.70164 -0.0227,-1.262983 -21.64883,3.875417 -9.57012,2.27386 -8.54223,-5.615373 -29.66692,-5.211765 -36.291437,0.693385 -12.16114,-44.045032 28.86511,-21.247922 10.83827,6.02251 26.67591,34.319755 22.45064,22.58427 z"
       style="opacity:1;fill:#77b686;fill-opacity:0.35294119;fill-rule:evenodd;stroke:#461e13;stroke-width:0;stroke-linecap:round;stroke-linejoin:round;stroke-miterlimit:4;stroke-dasharray:none;stroke-dashoffset:0;stroke-opacity:1;paint-order:stroke fill markers" />
    <path
       id="path1122"
       d="m 125.72787,54.643859 c 0,4.40726 -1.97126,3.39577 -4.8202,3.39577 -2.84895,0 -2.79064,-2.21448 -2.79064,-6.62174 0,-4.40727 -1.58047,-8.31964 1.26847,-8.31964 1.59766,0 2.85656,4.17979 3.80275,5.94405 0.74106,1.38176 2.53962,3.66585 2.53962,5.60156 z"
       style="opacity:1;fill:#78b485;fill-opacity:0.35294119;fill-rule:evenodd;stroke:#461e13;stroke-width:0;stroke-linecap:round;stroke-linejoin:round;stroke-miterlimit:4;stroke-dasharray:none;stroke-dashoffset:0;stroke-opacity:1;paint-order:stroke fill markers" />
    <path
       id="path934"
       d="m 174.08984,4.91989 c 0,2.00677 -4.19523,18.341473 -3.84242,27.036019 0.0717,3.79391 -1.41071,23.50305 -3.71879,23.47778 -4.29218,-0.12613 -2.24759,-8.80949 -5.10971,-19.93369 -1.49477,-5.80973 -1.26726,-1.99727 -4.93938,-6.786897 -2.77133,-3.614703 5.03006,-16.219134 2.95506,-18.578681 C 152.09243,1.7854 127.78691,-4.9992 117.60139,-4.9992 c -8.90864,0 -35.915647,3.40346 -43.400967,11.16793 -3.29635,3.419277 6.5802,15.126424 4.27606,19.92786 -2.30413,4.801439 -8.61431,7.190959 -9.79194,13.057789 -1.72547,8.606496 -0.94938,19.451035 -0.94938,17.547076 1.01295,13.81911 -3.09391,0.149934 -6.9159,-35.586223 -1.02393,-9.573851 3.2985,-21.018372 3.2985,-22.712652 0,-5.99958 2.62689,-18.59622 13.433,-27.51766 11.00129,-9.08258 25.100377,-12.20783 45.372417,-12.20783 23.69164,0 37.90121,15.1029 44.93176,22.54154 4.89429,5.17838 6.2349,18.73199 6.2349,23.70126 z"
       style="opacity:1;fill:#090807;fill-opacity:1;fill-rule:evenodd;stroke:#120f36;stroke-width:2.7809999;stroke-linecap:round;stroke-linejoin:round;stroke-miterlimit:4;stroke-dasharray:none;stroke-dashoffset:0;stroke-opacity:0.87373739;paint-order:stroke fill markers" />
    <path
       id="path914"
       d="m 108.82116,40.354639 c -1e-5,0.41512 -2.54371,2.6186 -4.10065,1.60924 -2.79332,-2.40838 -3.48688,-8.80294 -7.458717,-9.50187 -3.40991,-0.37909 -8.76425,2.01129 -10.70734,4.40809 -2.43983,3.12791 -1.51509,2.31491 -2.94139,2.02007 -1.68653,-0.34863 -2.16077,-1.42834 -2.16078,-1.89304 -3e-5,-1.1655 6.47324,-7.75372 14.19703,-7.75372 7.723787,0 13.171867,9.94573 13.171847,11.11123 z"
       style="display:inline;opacity:1;fill:#110e0b;fill-opacity:1;fill-rule:evenodd;stroke:#461e13;stroke-width:3.28559542;stroke-linecap:round;stroke-linejoin:round;stroke-miterlimit:4;stroke-dasharray:none;stroke-dashoffset:0;stroke-opacity:1;paint-order:stroke fill markers" />
    <path
       id="path914-8"
       d="m 122.03035,39.650459 c 1e-5,0.41511 2.54371,2.61859 4.10065,1.60924 2.79331,-2.40839 2.10332,-6.95698 5.75783,-9.2381 5.993,-3.74079 9.26866,3.27371 14.59367,2.20752 1.68653,-0.34864 2.72773,-2.21973 2.72774,-2.68443 3e-5,-1.1655 -6.28426,-3.005475 -14.00804,-3.005475 -7.72379,0 -13.17188,9.945735 -13.17185,11.111245 z"
       style="display:inline;opacity:1;fill:#110e0b;fill-opacity:1;fill-rule:evenodd;stroke:#461e13;stroke-width:3.28559542;stroke-linecap:round;stroke-linejoin:round;stroke-miterlimit:4;stroke-dasharray:none;stroke-dashoffset:0;stroke-opacity:1;paint-order:stroke fill markers" />
    <path
       id="mouth"
       d="m 143.36059,64.621539 c -3.51617,20.05267 -7.76923,25.42213 -23.18959,25.96202 -13.77467,1.13611 -21.273737,-3.65802 -24.066677,-11.03793 -8.03916,-27.78275 6.601377,-10.48723 25.121247,-10.89454 9.46365,-1.05294 21.60355,-9.01694 22.13502,-4.02955 z"
       style="display:inline;opacity:1;fill:#fef9f6;fill-opacity:1;fill-rule:evenodd;stroke:#461e13;stroke-width:4.53299999;stroke-linecap:round;stroke-linejoin:round;stroke-miterlimit:4;stroke-dasharray:none;stroke-dashoffset:0;stroke-opacity:1;paint-order:stroke fill markers" />
    <g
       id="layer8"
       style="display:inline"
       transform="translate(-82.175547,108.54937)">
      <path
         style="opacity:1;fill:#191710;fill-opacity:1;fill-rule:evenodd;stroke:#461e13;stroke-width:0;stroke-linecap:round;stroke-linejoin:round;stroke-miterlimit:4;stroke-dasharray:none;stroke-dashoffset:0;stroke-opacity:1;paint-order:stroke fill markers"
         d="m 243.24176,-81.080609 c 3.4002,0.613106 2.23024,5.702988 4.7247,7.937498 1.63263,1.46249 2.26786,-8.089452 2.26786,-12.473212 0,-4.38376 -1.83972,-8.458624 -3.96875,-7.9375 -2.6193,0.641127 -8.67716,11.453831 -3.02381,12.473214 z"
         id="path1129" />
      <path
         style="opacity:1;fill:#191710;fill-opacity:1;fill-rule:evenodd;stroke:#461e13;stroke-width:0;stroke-linecap:round;stroke-linejoin:round;stroke-miterlimit:4;stroke-dasharray:none;stroke-dashoffset:0;stroke-opacity:1;paint-order:stroke fill markers"
         d="m 249.76707,-122.0799 c 3.13243,13.18638 4.87798,26.929689 -12.0202,16.05286 -9.84731,-7.71004 -11.68005,-6.84938 -18.91551,-10.10808 -22.0876,-6.51357 -16.68833,-32.23853 2.9599,-22.21445 8.66315,0 12.69958,3.85775 19.42317,9.32066 z"
         id="path1134" />
      <path
         style="opacity:1;fill:#dcdcdc;fill-opacity:1;fill-rule:evenodd;stroke:#461e13;stroke-width:0;stroke-linecap:round;stroke-linejoin:round;stroke-miterlimit:4;stroke-dasharray:none;stroke-dashoffset:0;stroke-opacity:1;paint-order:stroke fill markers"
         d="m 186.64586,-21.901091 c -11.1014,-1.75761 -11.33535,-28.58248 -4.73576,-19.68547 1.59809,6.51813 5.46693,10.24948 7.63254,10.40607 5.77778,0.41779 11.8413,2.83704 -1.89377,4.61796 -4.07659,0.52858 2.66029,5.24143 -1.00301,4.66144 z"
         id="path1142-2" />
      <path
         style="opacity:1;fill:#dcdcdc;fill-opacity:1;fill-rule:evenodd;stroke:#461e13;stroke-width:0;stroke-linecap:round;stroke-linejoin:round;stroke-miterlimit:4;stroke-dasharray:none;stroke-dashoffset:0;stroke-opacity:1;paint-order:stroke fill markers"
         d="m 214.19963,-21.431531 c 7.28145,-2.31975 13.78841,-27.64015 7.67771,-18.88562 -2.13276,3.0555 -3.9519,6.37776 -7.38639,7.4625 -3.72065,1.17512 -9.3567,0.9561 -11.50302,1.4692 -8.52909,2.03898 7.7005,1.32083 9.636,2.98295 2.24439,1.92737 -2.06584,8.51359 1.5757,6.97097 z"
         id="path1142-2-7" />
    </g>
  </g>
  <g
     style="display:none;opacity:1"
     id="g953"
     transform="translate(-103.68015,85.982417)">
    <path
       id="path959"
       d="m 248.59071,-54.05852 c 1.47886,7.660371 -3.9661,25.475706 -13.37795,35.716426 -8.37748,9.1152541 -23.53993,19.6963149 -38.10983,18.22690101 C 182.73751,-1.5639836 172.2098,-9.1598991 163.28876,-17.837708 c -9.96757,-9.695799 -12.61673,-24.611514 -13.3806,-31.67723 8.53777,38.391103 52.85052,49.31065297 74.4578,36.144198 14.53036,-8.854115 19.86532,-26.725923 24.22475,-40.68778 z"
       style="opacity:1;fill:#141210;fill-opacity:1;fill-rule:evenodd;stroke:#461e13;stroke-width:2.93989706;stroke-linecap:round;stroke-linejoin:round;stroke-miterlimit:4;stroke-dasharray:none;stroke-dashoffset:0;stroke-opacity:1;paint-order:stroke fill markers" />
    <path
       id="path962"
       d="m 229.50949,-27.259735 c -3.11594,0.412896 1.42671,-7.635678 2.61339,-17.178784 0.51654,-4.153926 -5.8441,-6.651703 -12.12376,-6.140528 -4.20381,0.342197 -13.63579,6.978527 -19.53862,5.791439 -8.53153,-1.715733 -18.13387,-6.220906 -23.42784,-4.919278 -3.04991,0.749882 -8.75171,4.931706 -7.77691,10.007143 2.13385,11.110271 1.11415,12.454606 -1.56225,9.108702 0.0818,-0.782528 -3.21526,-5.49066 -2.21065,-15.034425 0.45387,-4.311753 6.74429,-7.163701 9.5872,-6.977623 6.40432,0.419184 20.58443,6.078177 25.70783,6.529247 8.48387,0.74693 17.31195,-6.5426 23.60424,-6.867454 23.97764,-1.237902 5.3398,25.042444 5.12737,25.681561 z"
       style="opacity:1;fill:#141210;fill-opacity:1;fill-rule:evenodd;stroke:#461e13;stroke-width:3;stroke-linecap:round;stroke-linejoin:round;stroke-miterlimit:4;stroke-dasharray:none;stroke-dashoffset:0;stroke-opacity:1;paint-order:stroke fill markers" />
  </g>
  <g
     transform="translate(-103.68015,85.982417)"
     id="g969"
     style="display:none;opacity:1">
    <path
       style="opacity:1;fill:#461e13;fill-opacity:1;fill-rule:evenodd;stroke:none;stroke-width:2.93989706;stroke-linecap:round;stroke-linejoin:round;stroke-miterlimit:4;stroke-dasharray:none;stroke-dashoffset:0;stroke-opacity:1;paint-order:stroke fill markers"
       d="m 248.59071,-54.05852 c 1.47886,7.660371 -3.9661,25.475706 -13.37795,35.716426 -8.37748,9.1152541 -23.53993,19.6963149 -38.10983,18.22690101 C 182.73751,-1.5639836 172.2098,-9.1598991 163.28876,-17.837708 c -9.96757,-9.695799 -12.61673,-24.611514 -13.3806,-31.67723 8.53777,38.391103 52.85052,49.31065297 74.4578,36.144198 14.53036,-8.854115 19.86532,-26.725923 24.22475,-40.68778 z"
       id="path965" />
    <path
       style="opacity:1;fill:#461e13;fill-opacity:1;fill-rule:evenodd;stroke:none;stroke-width:3;stroke-linecap:round;stroke-linejoin:round;stroke-miterlimit:4;stroke-dasharray:none;stroke-dashoffset:0;stroke-opacity:1;paint-order:stroke fill markers"
       d="m 227.17088,-24.628801 c -3.11594,0.412896 2.30369,-9.974286 3.49037,-19.517392 0.51654,-4.153926 -3.55565,-5.703795 -9.83531,-5.19262 -4.20381,0.342197 -14.46261,5.738293 -20.36544,4.551205 -8.53153,-1.715733 -18.13387,-6.220906 -23.42784,-4.919278 -3.04991,0.749882 -6.99775,5.224032 -6.02295,10.299469 2.13385,11.110271 1.40647,12.16228 -1.26993,8.816376 0.0818,-0.782528 -2.92293,-5.49066 -1.91832,-15.034425 0.45387,-4.311753 3.99227,-9.230758 6.83518,-9.04468 6.40432,0.419184 19.85792,5.080113 24.98132,5.531183 8.48387,0.74693 18.86528,-4.717713 25.15757,-5.042567 23.97764,-1.237902 2.58778,28.913612 2.37535,29.552729 z"
       id="path967" />
  </g>
</svg>
