<?xml version="1.0" encoding="UTF-8" standalone="no"?>
<!-- Created with Inkscape (http://www.inkscape.org/) -->

<svg
   width="131.82568mm"
   height="265.28998mm"
   viewBox="0 0 131.82568 265.28998"
   version="1.1"
   id="svg1"
   xmlns="http://www.w3.org/2000/svg"
   xmlns:svg="http://www.w3.org/2000/svg">
  <defs
     id="defs1" />
  <g
     id="layer1"
     transform="translate(-41.492108,-12.468979)">
    <g
       id="g3"
       transform="matrix(1.736144,0,0,1.736144,-72.739045,-94.29339)"
       style="fill:#ffffff;fill-opacity:1;stroke:none">
      <path
         style="font-size:181.128px;font-family:'Stick No Bills';-inkscape-font-specification:'Stick No Bills';fill:#ffffff;fill-opacity:1;stroke:none;stroke-width:3.56551;stroke-linecap:round"
         d="m 106.91195,177.16685 c -7.245115,0 -14.007227,-1.2679 -20.286331,-3.80369 -6.158353,-2.53579 -11.169561,-6.46023 -15.033625,-11.77332 -3.864064,-5.31309 -5.796096,-12.19595 -5.796096,-20.64859 0,-8.21114 1.750904,-14.97325 5.252712,-20.28634 3.501808,-5.43384 8.331888,-9.47903 14.490241,-12.13557 6.279104,-2.7773 13.343096,-4.16595 21.191979,-4.16595 10.86777,-0.12074 24.12822,0.15603 34.99523,0.0502 l -0.046,14.43999 h -36.036 c -4.83008,0 -9.116777,0.84526 -12.860089,2.53579 -3.743312,1.56978 -6.701736,4.04519 -8.875272,7.42625 -2.173536,3.2603 -3.260304,7.3055 -3.260304,12.13558 0,4.58857 1.026392,8.51301 3.079176,11.77332 2.173536,3.2603 5.192336,5.79609 9.0564,7.60737 3.984816,1.81128 8.694139,2.71692 14.127979,2.71692 h 10.14317 v 14.12799 z m -39.848156,37.13124 v -14.49024 h 49.991326 v 14.49024 z m 59.953366,0 v -51.44035 h 14.67137 v 51.44035 z"
         id="text1"
         aria-label="දු " />
      <path
         d="M 126.9127,95.000649 V 79.459814 l -23.21413,4.163781 0.0651,-13.65761 23.99483,-8.472025 h 13.70951 v 33.539218 z"
         id="text3-2-3"
         style="font-size:192.546px;font-family:'Stick No Bills';-inkscape-font-specification:'Stick No Bills';fill:#ffffff;fill-opacity:1;stroke:none;stroke-width:3.79028;stroke-linecap:round"
         aria-label="1" />
    </g>
  </g>
</svg>
