<?xml version="1.0" encoding="UTF-8" standalone="no"?>
<svg
   xmlns:dc="http://purl.org/dc/elements/1.1/"
   xmlns:cc="http://creativecommons.org/ns#"
   xmlns:rdf="http://www.w3.org/1999/02/22-rdf-syntax-ns#"
   xmlns:svg="http://www.w3.org/2000/svg"
   xmlns="http://www.w3.org/2000/svg"
   xmlns:sodipodi="http://sodipodi.sourceforge.net/DTD/sodipodi-0.dtd"
   xmlns:inkscape="http://www.inkscape.org/namespaces/inkscape"
   id="svg8"
   version="1.1"
   viewBox="0 0 102.01258 162.02783"
   height="162.02783mm"
   width="102.01258mm"
   sodipodi:docname="du_wos.svg"
   inkscape:version="0.92.4 (5da689c313, 2019-01-14)">
  <sodipodi:namedview
     pagecolor="#ffffff"
     bordercolor="#666666"
     borderopacity="1"
     objecttolerance="10"
     gridtolerance="10"
     guidetolerance="10"
     inkscape:pageopacity="0"
     inkscape:pageshadow="2"
     inkscape:window-width="1304"
     inkscape:window-height="745"
     id="namedview29"
     showgrid="false"
     inkscape:zoom="0.38537618"
     inkscape:cx="-191.26066"
     inkscape:cy="284.13796"
     inkscape:window-x="54"
     inkscape:window-y="-8"
     inkscape:window-maximized="1"
     inkscape:current-layer="svg8" />
  <defs
     id="defs2" />
  <metadata
     id="metadata5">
    <rdf:RDF>
      <cc:Work
         rdf:about="">
        <dc:format>image/svg+xml</dc:format>
        <dc:type
           rdf:resource="http://purl.org/dc/dcmitype/StillImage" />
        <dc:title />
      </cc:Work>
    </rdf:RDF>
  </metadata>
  <g
     transform="translate(-5.0807927,-53.157677)"
     id="layer4" />
  <g
     transform="translate(-5.0807927,-53.157677)"
     style="display:none"
     id="layer2">
    <path
       id="path1391"
       d="m 132.76414,142.71484 3.38507,3.76998 -0.0107,0.22372 -3.98861,0.47114 z"
       style="fill:#000000;fill-opacity:1;stroke:none;stroke-width:0.26458332px;stroke-linecap:butt;stroke-linejoin:miter;stroke-opacity:1" />
    <path
       id="path1395"
       d="m 85.729724,175.87044 3.330914,3.76795 -0.531527,0.86226 -5.220798,-2.2088 1.996189,-2.56315 z"
       style="fill:#000000;fill-opacity:1;stroke:none;stroke-width:0.26458332px;stroke-linecap:butt;stroke-linejoin:miter;stroke-opacity:1" />
    <path
       id="path1397"
       d="m 75.825566,93.507067 3.336822,3.77976 0.330729,0.05906 0.844539,-3.336822 z"
       style="fill:#000000;fill-opacity:1;stroke:none;stroke-width:0.26458332px;stroke-linecap:butt;stroke-linejoin:miter;stroke-opacity:1" />
  </g>
  <g
     transform="translate(-5.0807927,-53.157677)"
     style="display:none"
     id="layer1">
    <text
       id="text1377"
       y="172.37622"
       x="50.924873"
       style="font-style:normal;font-variant:normal;font-weight:normal;font-stretch:normal;font-size:155.01066589px;line-height:1.25;font-family:galle;-inkscape-font-specification:galle;letter-spacing:0px;word-spacing:0px;fill:#000000;fill-opacity:1;stroke:none;stroke-width:3.87526631"
       xml:space="preserve"><tspan
         id="tspan1379"
         style="stroke-width:3.87526631"
         y="172.37622"
         x="50.924873">දු</tspan></text>
  </g>
  <g
     transform="translate(-5.0807927,-53.157677)"
     style="display:none"
     id="g1387">
    <text
       xml:space="preserve"
       style="font-style:normal;font-variant:normal;font-weight:normal;font-stretch:normal;font-size:155.01066589px;line-height:1.25;font-family:galle;-inkscape-font-specification:galle;letter-spacing:0px;word-spacing:0px;fill:#ff0000;fill-opacity:1;stroke:none;stroke-width:3.87526631"
       x="47.58794"
       y="168.59647"
       id="text1385"><tspan
         x="47.58794"
         y="168.59647"
         style="fill:#ff0000;stroke-width:3.87526631"
         id="tspan1383">දු</tspan></text>
  </g>
  <g
     transform="translate(-5.0807927,-53.157677)"
     id="layer3" />
  <g
     transform="translate(-5.0807927,-53.157677)"
     id="g825"
     style="display:none">
    <g
       id="text823"
       style="font-style:normal;font-variant:normal;font-weight:normal;font-stretch:normal;font-size:155.01066589px;line-height:1.25;font-family:galle;-inkscape-font-specification:galle;letter-spacing:0px;word-spacing:0px;fill:#000000;fill-opacity:1;stroke:none;stroke-width:3.87526631"
       aria-label="දු">
      <path
         id="path833"
         style="fill:#000000;fill-opacity:1;stroke-width:3.87526631"
         d="m 55.531176,190.46089 c -2.068827,-0.95873 -4.188114,-1.43809 -6.35786,-1.43809 -2.926633,0 -5.348675,0.75689 -7.266125,2.27067 -1.86699,1.56423 -2.800485,3.70875 -2.800485,6.43354 0,1.71561 0.353214,3.12847 1.059643,4.23858 0.756888,1.16056 1.766072,2.06882 3.027552,2.72479 1.26148,0.70643 2.724797,1.1858 4.389951,1.43809 1.665153,0.30275 3.456455,0.45413 5.373905,0.45413 l 43.428439,-0.18899 0.18899,-33.22738 c -8.32577,3.02755 -14.85568,4.73032 -22.42456,4.73032 -6.206485,0 -11.984066,-0.90827 -17.332741,-2.7248 -5.348675,-1.86699 -10.016151,-4.44041 -14.002428,-7.72026 -3.986277,-3.27985 -7.114747,-7.1652 -9.385411,-11.65607 -2.270664,-4.54133 -3.405996,-9.51156 -3.405996,-14.9107 0,-4.08719 0.63074,-7.61934 1.89222,-10.59643 1.311939,-2.97709 3.027551,-5.50005 5.146838,-7.56888 2.169746,-2.06883 4.617017,-3.73398 7.341814,-4.99546 2.775256,-1.26148 5.600971,-2.2202 8.477146,-2.87617 2.926633,-0.70643 5.777578,-1.16057 8.552834,-1.3624 2.825715,-0.2523 5.373905,-0.37845 7.644569,-0.37845 l 26.038675,-0.56696 0.2882,-20.284926 -23.028799,6.743564 -4.943257,-4.734978 2.46382,-5.450342 25.758846,-8.235364 6.436424,-7.401578 4.93521,7.369118 -0.1925,41.830976 -36.015776,0.26727 c -2.220144,0.0165 -4.541329,0.0505 -6.96337,0.15138 -2.371583,0.10092 -4.692706,0.35322 -6.96337,0.75689 -2.220205,0.40367 -4.339491,1.00918 -6.357859,1.81653 -2.018368,0.80735 -3.80967,1.89222 -5.373905,3.25462 -1.513776,1.3624 -2.724797,3.07801 -3.633063,5.14684 -0.857806,2.01837 -1.286709,4.49087 -1.286709,7.4175 0,3.88536 0.782118,7.44273 2.346353,10.67212 1.614694,3.22939 3.860128,6.00464 6.736303,8.32577 2.926634,2.32112 6.408319,4.13765 10.445055,5.44959 4.036736,1.31194 8.502375,1.96791 13.396918,1.96791 4.995459,0 9.562019,-0.37844 13.699669,-1.13533 4.18811,-0.75689 6.47946,-1.8101 9.70885,-2.97067 l 0.28348,-13.20793 4.819194,-4.82948 4.94326,4.73498 v 64.71392 H 51.973802 c -3.279848,0 -6.105563,-0.32798 -8.477146,-0.98395 -2.371582,-0.60551 -4.36472,-1.41286 -5.979415,-2.42204 -1.614695,-1.00919 -2.926634,-2.16975 -3.935818,-3.48169 -0.958725,-1.31194 -1.715613,-2.62388 -2.270664,-3.93582 -0.504592,-1.31194 -0.857806,-2.59865 -1.059643,-3.86013 -0.151377,-1.26148 -0.227066,-2.37158 -0.227066,-3.3303 0,-2.57342 0.504592,-4.89454 1.513776,-6.96337 1.059643,-2.01837 2.447271,-3.73399 4.162884,-5.14684 1.715613,-1.41286 3.683521,-2.49773 5.903726,-3.25462 2.270664,-0.70643 4.617017,-1.05964 7.039059,-1.05964 1.816531,0 4.139399,-2.31294 5.95593,-1.85881 l 4.943257,4.73498 z" />
    </g>
  </g>
  <g
     transform="translate(-5.0807927,-53.157677)"
     style="display:inline"
     id="g828">
    <g
       transform="translate(-4.9432573,-4.7349781)"
       aria-label="දු"
       style="font-style:normal;font-variant:normal;font-weight:normal;font-stretch:normal;font-size:155.01066589px;line-height:1.25;font-family:galle;-inkscape-font-specification:galle;letter-spacing:0px;word-spacing:0px;fill:#4cab9d;fill-opacity:1;stroke:none;stroke-width:3.87526631"
       id="g826">
      <path
         d="m 55.795759,192.31297 c -2.068827,-0.95873 -4.188116,-1.43528 -6.35786,-1.43809 -2.938037,-0.004 -5.968218,0.39384 -7.001542,2.66754 -1.249923,2.7503 0.155049,6.9157 3.138794,8.50213 1.26148,0.70643 2.724797,1.1858 4.389951,1.43809 1.665153,0.30275 3.45988,0.33956 5.373905,0.45413 l 40.518022,-0.71816 0.718157,-30.05238 c -8.32577,3.02755 -14.85568,4.73032 -22.42456,4.73032 -6.206485,0 -11.984066,-0.90827 -17.332741,-2.7248 -5.348675,-1.86699 -10.016151,-4.44041 -14.002428,-7.72026 -3.986277,-3.27985 -7.114747,-7.1652 -9.385411,-11.65607 -2.270664,-4.54133 -3.405996,-14.53864 -3.405996,-19.93778 0,-4.08719 0.63074,-7.61934 1.89222,-10.59643 1.311939,-2.97709 3.027551,-5.50005 5.146838,-7.56888 2.169746,-2.06883 4.617017,-3.73398 7.341814,-4.99546 2.775256,-1.26148 5.600971,-2.2202 8.477146,-2.87617 2.926633,-0.70643 5.777578,-1.16057 8.552834,-1.3624 2.825715,-0.2523 5.374443,-0.32902 7.644569,-0.37845 l 26.038675,-0.56696 0.2882,-15.257846 -23.028799,6.743564 -2.479437,-10.18532 25.758846,-8.235364 11.371634,-0.03246 -0.1925,41.830976 -32.311609,0.26727 c -2.22013,0.0184 -4.541329,0.0505 -6.96337,0.15138 -2.371583,0.10092 -4.692706,0.35322 -6.96337,0.75689 -2.220205,0.40367 -4.339491,1.00918 -6.357859,1.81653 -2.018368,0.80735 -3.80967,1.89222 -5.373905,3.25462 -1.513776,1.3624 -2.724797,3.07801 -3.633063,5.14684 -0.857806,2.01837 -1.286709,4.49087 -1.286709,7.4175 0.351522,9.22988 2.604897,11.83474 8.288906,16.35206 2.926634,2.32112 6.408319,4.13765 10.445055,5.44959 4.036736,1.31194 7.708625,1.96791 12.603168,1.96791 4.995459,0 10.884935,-1.43677 15.022585,-2.19366 4.18811,-0.75689 2.246127,-0.75177 5.475517,-1.91234 l 1.07723,-10.5621 9.762454,-0.0945 v 64.71392 H 51.973802 c -3.279848,0 -6.105563,-0.32798 -8.477146,-0.98395 -2.371582,-0.60551 -4.36472,-1.41286 -5.979415,-2.42204 -1.614695,-1.00919 -2.926634,-2.16975 -3.935818,-3.48169 -0.958725,-1.31194 -1.715613,-2.62388 -2.270664,-3.93582 -0.504592,-1.31194 -0.857806,-2.59865 -1.059643,-3.86013 -0.151377,-1.26148 -0.227066,-2.37158 -0.227066,-3.3303 0,-2.57342 0.504592,-4.89454 1.513776,-6.96337 1.059643,-2.01837 2.447271,-3.73399 4.162884,-5.14684 1.715613,-1.41286 3.683521,-2.49773 5.903726,-3.25462 2.270664,-0.70643 4.617017,-1.05964 7.039059,-1.05964 1.816531,0 3.633063,0.22707 5.449594,0.6812 1.86699,0.45413 3.683521,1.18578 5.449593,2.19497 z"
         style="fill:#4cab9d;fill-opacity:1;stroke-width:3.87526631"
         id="path824" />
    </g>
  </g>
  <g
     transform="translate(-5.0807927,-53.157677)"
     id="g841"
     style="display:inline">
    <g
       id="g839"
       style="font-style:normal;font-variant:normal;font-weight:normal;font-stretch:normal;font-size:155.01066589px;line-height:1.25;font-family:galle;-inkscape-font-specification:galle;letter-spacing:0px;word-spacing:0px;fill:#5fd18c;fill-opacity:1;stroke:none;stroke-width:3.87526631"
       aria-label="දු"
       transform="translate(-4.9432573,-4.7349781)">
      <path
         id="path837"
         style="fill:#5fd18c;fill-opacity:1;stroke-width:3.87526631"
         d="M 89.500916,203.32217 89.609017,150.2 l 17.012103,-0.006 0.0124,64.72649 z" />
    </g>
  </g>
  <g
     transform="translate(-5.0807927,-53.157677)"
     id="g835"
     style="display:inline;fill:#5fd18c;fill-opacity:1">
    <g
       id="g833"
       style="font-style:normal;font-variant:normal;font-weight:normal;font-stretch:normal;font-size:155.01066589px;line-height:1.25;font-family:galle;-inkscape-font-specification:galle;letter-spacing:0px;word-spacing:0px;fill:#5fd18c;fill-opacity:1;stroke:none;stroke-width:3.87526631"
       aria-label="දු"
       transform="translate(-4.9432573,-4.7349781)">
      <path
         id="path831"
         style="fill:#5fd18c;fill-opacity:1;stroke-width:3.87526631"
         d="m 89.561897,107.63382 0.0058,-12.358686 -16.815981,6.623346 -3.414853,-15.143167 20.473591,-8.862658 17.226176,0.01867 -0.20052,44.465115 z" />
    </g>
  </g>
</svg>
