<?xml version="1.0" encoding="UTF-8"?>
<svg width="102.01mm" height="162.03mm" version="1.1" viewBox="0 0 102.01 162.03" xmlns="http://www.w3.org/2000/svg" xmlns:cc="http://creativecommons.org/ns#" xmlns:dc="http://purl.org/dc/elements/1.1/" xmlns:rdf="http://www.w3.org/1999/02/22-rdf-syntax-ns#">
<metadata>
<rdf:RDF>
<cc:Work rdf:about="">
<dc:format>image/svg+xml</dc:format>
<dc:type rdf:resource="http://purl.org/dc/dcmitype/StillImage"/>
<dc:title/>
</cc:Work>
</rdf:RDF>
</metadata>
<g transform="translate(-5.0808 -53.158)" display="none">
<path d="m132.76 142.71 3.3851 3.77-0.0107 0.22372-3.9886 0.47114z"/>
<path d="m85.73 175.87 3.3309 3.768-0.53153 0.86226-5.2208-2.2088 1.9962-2.5632z"/>
<path d="m75.826 93.507 3.3368 3.7798 0.33073 0.05906 0.84454-3.3368z"/>
</g>
<g transform="translate(-5.0808 -53.158)" display="none">
<text x="50.924873" y="172.37622" fill="#000000" font-family="galle" font-size="155.01px" letter-spacing="0px" stroke-width="3.8753" word-spacing="0px" style="line-height:1.25" xml:space="preserve"><tspan x="50.924873" y="172.37622" stroke-width="3.8753">දු</tspan></text>
</g>
<g transform="translate(-5.0808 -53.158)" display="none">
<text x="47.58794" y="168.59647" fill="#ff0000" font-family="galle" font-size="155.01px" letter-spacing="0px" stroke-width="3.8753" word-spacing="0px" style="line-height:1.25" xml:space="preserve"><tspan x="47.58794" y="168.59647" fill="#ff0000" stroke-width="3.8753">දු</tspan></text>
</g>
<g transform="translate(-5.0808 -53.158)" display="none">
<g aria-label="දු">
<path d="m55.531 190.46c-2.0688-0.95873-4.1881-1.4381-6.3579-1.4381-2.9266 0-5.3487 0.75689-7.2661 2.2707-1.867 1.5642-2.8005 3.7088-2.8005 6.4335 0 1.7156 0.35321 3.1285 1.0596 4.2386 0.75689 1.1606 1.7661 2.0688 3.0276 2.7248 1.2615 0.70643 2.7248 1.1858 4.39 1.4381 1.6652 0.30275 3.4565 0.45413 5.3739 0.45413l43.428-0.18899 0.18899-33.227c-8.3258 3.0276-14.856 4.7303-22.425 4.7303-6.2065 0-11.984-0.90827-17.333-2.7248-5.3487-1.867-10.016-4.4404-14.002-7.7203s-7.1147-7.1652-9.3854-11.656c-2.2707-4.5413-3.406-9.5116-3.406-14.911 0-4.0872 0.63074-7.6193 1.8922-10.596 1.3119-2.9771 3.0276-5.5 5.1468-7.5689 2.1697-2.0688 4.617-3.734 7.3418-4.9955 2.7753-1.2615 5.601-2.2202 8.4771-2.8762 2.9266-0.70643 5.7776-1.1606 8.5528-1.3624 2.8257-0.2523 5.3739-0.37845 7.6446-0.37845l26.039-0.56696 0.2882-20.285-23.029 6.7436-4.9433-4.735 2.4638-5.4503 25.759-8.2354 6.4364-7.4016 4.9352 7.3691-0.1925 41.831-36.016 0.26727c-2.2201 0.0165-4.5413 0.0505-6.9634 0.15138-2.3716 0.10092-4.6927 0.35322-6.9634 0.75689-2.2202 0.40367-4.3395 1.0092-6.3579 1.8165s-3.8097 1.8922-5.3739 3.2546c-1.5138 1.3624-2.7248 3.078-3.6331 5.1468-0.85781 2.0184-1.2867 4.4909-1.2867 7.4175 0 3.8854 0.78212 7.4427 2.3464 10.672 1.6147 3.2294 3.8601 6.0046 6.7363 8.3258 2.9266 2.3211 6.4083 4.1376 10.445 5.4496s8.5024 1.9679 13.397 1.9679c4.9955 0 9.562-0.37844 13.7-1.1353 4.1881-0.75689 6.4795-1.8101 9.7088-2.9707l0.28348-13.208 4.8192-4.8295 4.9433 4.735v64.714h-54.647c-3.2798 0-6.1056-0.32798-8.4771-0.98395-2.3716-0.60551-4.3647-1.4129-5.9794-2.422-1.6147-1.0092-2.9266-2.1698-3.9358-3.4817-0.95872-1.3119-1.7156-2.6239-2.2707-3.9358-0.50459-1.3119-0.85781-2.5986-1.0596-3.8601-0.15138-1.2615-0.22707-2.3716-0.22707-3.3303 0-2.5734 0.50459-4.8945 1.5138-6.9634 1.0596-2.0184 2.4473-3.734 4.1629-5.1468 1.7156-1.4129 3.6835-2.4977 5.9037-3.2546 2.2707-0.70643 4.617-1.0596 7.0391-1.0596 1.8165 0 4.1394-2.3129 5.9559-1.8588l4.9433 4.735z" stroke-width="3.8753"/>
</g>
</g>
<g transform="translate(-5.0808 -53.158)">
<g transform="translate(-4.9433 -4.735)" fill="#4cab9d" aria-label="දු">
<path d="m55.796 192.31c-2.0688-0.95873-4.1881-1.4353-6.3579-1.4381-2.938-4e-3 -5.9682 0.39384-7.0015 2.6675-1.2499 2.7503 0.15505 6.9157 3.1388 8.5021 1.2615 0.70643 2.7248 1.1858 4.39 1.4381 1.6652 0.30275 3.4599 0.33956 5.3739 0.45413l40.518-0.71816 0.71816-30.052c-8.3258 3.0276-14.856 4.7303-22.425 4.7303-6.2065 0-11.984-0.90827-17.333-2.7248-5.3487-1.867-10.016-4.4404-14.002-7.7203s-7.1147-7.1652-9.3854-11.656c-2.2707-4.5413-3.406-14.539-3.406-19.938 0-4.0872 0.63074-7.6193 1.8922-10.596 1.3119-2.9771 3.0276-5.5 5.1468-7.5689 2.1697-2.0688 4.617-3.734 7.3418-4.9955 2.7753-1.2615 5.601-2.2202 8.4771-2.8762 2.9266-0.70643 5.7776-1.1606 8.5528-1.3624 2.8257-0.2523 5.3744-0.32902 7.6446-0.37845l26.039-0.56696 0.2882-15.258-23.029 6.7436-2.4794-10.185 25.759-8.2354 11.372-0.03246-0.1925 41.831-32.312 0.26727c-2.2201 0.0184-4.5413 0.0505-6.9634 0.15138-2.3716 0.10092-4.6927 0.35322-6.9634 0.75689-2.2202 0.40367-4.3395 1.0092-6.3579 1.8165s-3.8097 1.8922-5.3739 3.2546c-1.5138 1.3624-2.7248 3.078-3.6331 5.1468-0.85781 2.0184-1.2867 4.4909-1.2867 7.4175 0.35152 9.2299 2.6049 11.835 8.2889 16.352 2.9266 2.3211 6.4083 4.1376 10.445 5.4496s7.7086 1.9679 12.603 1.9679c4.9955 0 10.885-1.4368 15.023-2.1937 4.1881-0.75689 2.2461-0.75177 5.4755-1.9123l1.0772-10.562 9.7625-0.0945v64.714h-54.647c-3.2798 0-6.1056-0.32798-8.4771-0.98395-2.3716-0.60551-4.3647-1.4129-5.9794-2.422-1.6147-1.0092-2.9266-2.1698-3.9358-3.4817-0.95872-1.3119-1.7156-2.6239-2.2707-3.9358-0.50459-1.3119-0.85781-2.5986-1.0596-3.8601-0.15138-1.2615-0.22707-2.3716-0.22707-3.3303 0-2.5734 0.50459-4.8945 1.5138-6.9634 1.0596-2.0184 2.4473-3.734 4.1629-5.1468 1.7156-1.4129 3.6835-2.4977 5.9037-3.2546 2.2707-0.70643 4.617-1.0596 7.0391-1.0596 1.8165 0 3.6331 0.22707 5.4496 0.6812 1.867 0.45413 3.6835 1.1858 5.4496 2.195z" fill="#4cab9d" stroke-width="3.8753"/>
</g>
</g>
<g transform="translate(-5.0808 -53.158)">
<g transform="translate(-4.9433 -4.735)" fill="#5fd18c" aria-label="දු">
<path d="m89.501 203.32 0.1081-53.122 17.012-6e-3 0.0124 64.726z" fill="#5fd18c" stroke-width="3.8753"/>
</g>
</g>
<g transform="translate(-5.0808 -53.158)" fill="#5fd18c">
<g transform="translate(-4.9433 -4.735)" fill="#5fd18c" aria-label="දු">
<path d="m89.562 107.63 0.0058-12.359-16.816 6.6233-3.4149-15.143 20.474-8.8627 17.226 0.01867-0.20052 44.465z" fill="#5fd18c" stroke-width="3.8753"/>
</g>
</g>
</svg>
