<?xml version="1.0" encoding="UTF-8" standalone="no"?>
<!-- Created with Inkscape (http://www.inkscape.org/) -->

<svg
   xmlns:dc="http://purl.org/dc/elements/1.1/"
   xmlns:cc="http://creativecommons.org/ns#"
   xmlns:rdf="http://www.w3.org/1999/02/22-rdf-syntax-ns#"
   xmlns:svg="http://www.w3.org/2000/svg"
   xmlns="http://www.w3.org/2000/svg"
   xmlns:sodipodi="http://sodipodi.sourceforge.net/DTD/sodipodi-0.dtd"
   xmlns:inkscape="http://www.inkscape.org/namespaces/inkscape"
   width="210mm"
   height="297mm"
   viewBox="0 0 210 297"
   version="1.1"
   id="svg8"
   inkscape:version="0.92.4 (5da689c313, 2019-01-14)"
   sodipodi:docname="cwc1.svg">
  <defs
     id="defs2" />
  <sodipodi:namedview
     id="base"
     pagecolor="#ffffff"
     bordercolor="#666666"
     borderopacity="1.0"
     inkscape:pageopacity="0.0"
     inkscape:pageshadow="2"
     inkscape:zoom="0.35"
     inkscape:cx="737.90157"
     inkscape:cy="826.73849"
     inkscape:document-units="mm"
     inkscape:current-layer="layer1"
     showgrid="false"
     inkscape:window-width="1366"
     inkscape:window-height="705"
     inkscape:window-x="-8"
     inkscape:window-y="-8"
     inkscape:window-maximized="1" />
  <metadata
     id="metadata5">
    <rdf:RDF>
      <cc:Work
         rdf:about="">
        <dc:format>image/svg+xml</dc:format>
        <dc:type
           rdf:resource="http://purl.org/dc/dcmitype/StillImage" />
        <dc:title></dc:title>
      </cc:Work>
    </rdf:RDF>
  </metadata>
  <g
     inkscape:groupmode="layer"
     id="layer2"
     inkscape:label="Layer 2">
    <flowRoot
       xml:space="preserve"
       id="flowRoot851"
       style="fill:black;fill-opacity:1;stroke:none;font-family:sans-serif;font-style:normal;font-weight:normal;font-size:40px;line-height:1.25;letter-spacing:0px;word-spacing:0px;-inkscape-font-specification:sans-serif;font-stretch:normal;font-variant:normal"><flowRegion
         id="flowRegion853"><rect
           id="rect855"
           width="274.76151"
           height="270.72089"
           x="-88.893425"
           y="702.2962" /></flowRegion><flowPara
         id="flowPara857"></flowPara></flowRoot>  </g>
  <g
     inkscape:label="Layer 1"
     inkscape:groupmode="layer"
     id="layer1">
    <g
       id="g887"
       transform="matrix(0.63933057,0,0,0.63933057,130.08785,-58.490582)">
      <text
         id="text849"
         y="191.16127"
         x="-14.967095"
         style="font-style:normal;font-variant:normal;font-weight:normal;font-stretch:normal;font-size:123.47222137px;line-height:126.94999695;font-family:sans-serif;-inkscape-font-specification:sans-serif;letter-spacing:0px;word-spacing:0px;fill:#ffffff;fill-opacity:1;stroke:none;stroke-width:0.26458332"
         xml:space="preserve"><tspan
           style="font-style:normal;font-variant:normal;font-weight:bold;font-stretch:normal;font-family:'Segoe UI';-inkscape-font-specification:'Segoe UI Bold';fill:#ffffff;fill-opacity:1;stroke-width:0.26458332"
           y="191.16127"
           x="-14.967095"
           id="tspan847"
           sodipodi:role="line">ed</tspan></text>
      <text
         id="text849-0"
         y="320.56403"
         x="-127.51494"
         style="font-style:normal;font-variant:normal;font-weight:normal;font-stretch:normal;font-size:123.47222137px;line-height:126.94999695;font-family:sans-serif;-inkscape-font-specification:sans-serif;letter-spacing:0px;word-spacing:0px;fill:#ffffff;fill-opacity:1;stroke:none;stroke-width:0.26458332"
         xml:space="preserve"><tspan
           style="font-style:normal;font-variant:normal;font-weight:bold;font-stretch:normal;font-family:'Segoe UI';-inkscape-font-specification:'Segoe UI Bold';fill:#ffffff;fill-opacity:1;stroke-width:0.26458332"
           y="320.56403"
           x="-127.51494"
           id="tspan847-4"
           sodipodi:role="line">with</tspan></text>
      <path
         inkscape:connector-curvature="0"
         style="fill:#ffffff;fill-opacity:1;stroke-width:0.35228112"
         id="path2"
         d="m -14.724297,396.61031 c 0.457965,2.71256 2.818248,4.75579 5.6364973,4.75579 h 5.8126388 c 3.45235556,0 6.2001484,-2.99439 5.7421821,-6.34106 -1.3386675,-9.93433 -5.7774098,-19.09363 -12.8934892,-26.31539 -5.072849,-5.17854 -8.313834,-11.73097 -9.300223,-18.84705 -0.387508,-2.78302 -2.78302,-4.86149 -5.671725,-4.86149 h -5.77741 c -3.452356,0 -6.129692,2.99439 -5.742183,6.34107 1.373897,11.23777 6.341061,21.59484 14.302614,29.73253 4.227373,4.29783 6.939938,9.68773 7.891098,15.5356 z m 39.455492,0 c 0.457954,2.71256 2.81824,4.75579 5.636494,4.75579 h 5.812632 c 3.452359,0 6.200152,-2.99439 5.742185,-6.34106 -1.33866,-9.93433 -5.777402,-19.09363 -12.89349,-26.31539 -5.072848,-5.17854 -8.313831,-11.73097 -9.300218,-18.84705 -0.38751,-2.78302 -2.783022,-4.86149 -5.671727,-4.86149 H 8.27966 c -3.4523543,0 -6.1649195,2.99439 -5.7421822,6.34107 1.3738965,11.23777 6.3410605,21.59484 14.3026142,29.73253 4.227373,4.29783 6.939937,9.68773 7.891103,15.5356 z M 81.413222,412.6391 H -48.226234 c -6.235376,0 -11.272995,5.03762 -11.272995,11.273 v 67.63798 c 0,18.67089 15.148088,33.81899 33.818988,33.81899 h 67.637977 c 18.670905,0 33.818992,-15.1481 33.818992,-33.81899 h 5.636494 c 21.770978,0 39.455488,-17.68452 39.455488,-39.4555 0,-21.77097 -17.68451,-39.45548 -39.455488,-39.45548 z m 0,56.36498 h -5.636494 v -33.81899 h 5.636494 c 9.335452,0 16.9095,7.57404 16.9095,16.90949 0,9.33546 -7.574048,16.9095 -16.9095,16.9095 z" />
      <path
         inkscape:connector-curvature="0"
         style="fill:#ffffff;fill-opacity:1;stroke-width:0.26458332"
         id="path2-4"
         d="m -118.21961,226.25702 -16.13959,-4.68312 c -1.69333,-0.47625 -2.64583,-2.24896 -2.16958,-3.94229 l 36.11563,-124.407094 c 0.476245,-1.69333 2.248953,-2.64583 3.942287,-2.16958 l 16.139578,4.68312 c 1.69334,0.47625 2.64584,2.24896 2.16959,3.94229 L -114.27732,224.08744 c -0.50271,1.69333 -2.24896,2.67229 -3.94229,2.16958 z m -30.1625,-29.68625 11.50937,-12.27667 c 1.21709,-1.29645 1.13771,-3.3602 -0.21166,-4.55083 l -23.97125,-21.08729 23.97125,-21.08729 c 1.34937,-1.19063 1.4552,-3.25438 0.21166,-4.55084 l -11.50937,-12.27666 c -1.19063,-1.27 -3.20146,-1.34938 -4.49792,-0.13229 l -38.12646,35.71875 c -1.34937,1.24354 -1.34937,3.38666 0,4.6302 l 38.12646,35.74522 c 1.29646,1.21708 3.30729,1.16416 4.49792,-0.1323 z m 86.571665,0.15875 38.12646,-35.74521 c 1.34937,-1.24354 1.34937,-3.38666 0,-4.63021 l -38.12646,-35.77166 c -1.27,-1.19063 -3.28084,-1.13771 -4.49792,0.13229 l -11.50937,12.27667 c -1.21709,1.29645 -1.13771,3.3602 0.21166,4.55083 l 23.97125,21.11375 -23.97125,21.08729 c -1.34937,1.19063 -1.45521,3.25438 -0.21166,4.55083 l 11.50937,12.27667 c 1.19063,1.29646 3.20146,1.34938 4.49792,0.15875 z" />
    </g>
  </g>
</svg>
